<?xml version="1.0" standalone="no"?>
<!DOCTYPE svg PUBLIC "-//W3C//DTD SVG 20010904//EN"
 "http://www.w3.org/TR/2001/REC-SVG-20010904/DTD/svg10.dtd">
<svg version="1.0" xmlns="http://www.w3.org/2000/svg"
 width="501.000000pt" height="501.000000pt" viewBox="0 0 501.000000 501.000000"
 preserveAspectRatio="xMidYMid meet">
<metadata>
Created by potrace 1.14, written by Peter Selinger 2001-2017
</metadata>
<g transform="translate(0.000000,501.000000) scale(0.100000,-0.100000)"
fill="#000000" stroke="none">
<path d="M2269 4306 c-2 -2 -39 -6 -81 -10 -276 -23 -587 -131 -838 -289 -401
-253 -705 -682 -794 -1117 -22 -112 -25 -128 -32 -210 -14 -154 -6 -326 22
-461 4 -23 1 -28 -25 -37 -38 -13 -127 -79 -167 -124 -112 -124 -245 -375
-290 -548 -53 -204 -59 -244 -58 -405 1 -188 0 -185 49 -185 22 0 56 -5 75
-10 19 -6 51 -13 70 -16 19 -3 43 -7 52 -10 19 -6 36 -9 98 -19 25 -4 54 -9
65 -11 23 -4 84 -14 122 -18 37 -5 121 -17 153 -22 14 -2 48 -6 75 -9 28 -3
84 -10 125 -15 41 -5 102 -12 135 -15 33 -3 76 -8 95 -10 19 -2 73 -6 120 -10
47 -3 101 -8 120 -10 32 -4 196 -15 300 -20 312 -17 454 -20 865 -19 413 0
619 5 850 19 28 2 100 6 160 9 61 4 133 9 160 11 28 2 77 7 110 10 33 3 92 7
130 10 39 3 86 7 105 10 37 5 85 10 185 20 33 3 71 8 85 10 14 2 50 7 80 10
30 3 80 10 110 15 30 5 78 12 105 15 103 12 344 64 375 80 37 19 35 24 -10 30
-18 2 -33 5 -35 7 -1 2 -5 30 -8 64 -7 69 -36 194 -48 209 -5 5 -9 15 -9 23 0
28 -89 202 -141 277 -93 135 -176 194 -272 192 -50 -2 -56 0 -51 16 3 9 7 29
9 45 2 15 4 27 5 27 1 0 3 29 5 64 2 35 6 82 9 105 3 22 8 79 12 126 3 56 11
89 20 96 10 8 15 39 18 98 4 81 2 90 -26 144 -47 90 -77 142 -120 209 -42 66
-40 51 -23 193 2 14 6 52 10 84 4 33 8 68 10 78 2 9 0 20 -6 23 -5 4 -9 -9
-10 -27 0 -18 -2 -42 -4 -53 -2 -11 -9 -63 -15 -115 -6 -52 -12 -96 -14 -97
-2 -2 -8 2 -13 9 -7 8 -7 37 -2 78 7 56 15 128 24 220 16 152 17 170 6 170 -6
0 -11 -8 -12 -17 -1 -10 -2 -29 -4 -43 -1 -14 -6 -65 -10 -115 -4 -49 -9 -93
-11 -96 -2 -3 -4 -32 -5 -64 -2 -65 -12 -56 -29 30 -19 92 -75 249 -129 360
-157 322 -410 589 -736 777 -203 118 -469 209 -678 234 -29 4 -55 8 -60 11 -9
5 -352 14 -358 9z"/>
</g>
</svg>
